<svg xmlns="http://www.w3.org/2000/svg" width="37" height="27" viewBox="0 0 37 27">
    <path fill="currentColor" stroke="#171717" stroke-width=".1" d="M36.508.094c-.204-.1-.448-.077-.628.06L26.17 7.58c-.48.37-.607 1.038-.299 1.558l-1.532.417-2.236-.952c-.039-.016-.08-.029-.121-.037-2.145-.41-3.257-.015-3.832.426h-6.105c.21-.501.056-1.08-.375-1.412L1.96.155c-.18-.138-.424-.162-.627-.061C1.129.194 1 .402 1 .629v14.336c0 .215.115.412.301.519l3.697 2.112c.18.103.383.157.59.157.304-.001.597-.117.818-.325l.693.553c-.403.515-.491 1.21-.23 1.809.263.599.832 1.006 1.484 1.06.05.004.1.006.15.006.093 0 .184-.009.275-.024.037.427.206.831.482 1.158.358.425.87.689 1.423.733.06.005.118.007.177.007l.027-.002c.016.388.161.76.411 1.058.34.4.84.632 1.366.63.209 0 .416-.037.612-.11.2.712.822 1.225 1.56 1.283.05.004.1.006.15.006.411.003.81-.14 1.125-.405l.937-.723 2.206 1.474c.341.226.742.347 1.152.347.14 0 .28-.014.418-.041.9-.18 1.575-.925 1.665-1.837.598.183 1.246.084 1.762-.269.516-.352.845-.92.893-1.543.692.228 1.453.078 2.006-.396.553-.475.817-1.204.696-1.923.599-.068 1.137-.395 1.474-.895.333-.503.434-1.125.276-1.707l1.178-1.177.48.72c.35.523 1.042.687 1.588.376l3.697-2.112c.186-.107.301-.305.301-.519V.63c0-.227-.129-.435-.333-.535zM2.194 14.619V1.838l6.669 5.1-5.47 8.366-1.2-.685zm3.396 1.94l-1.158-.662 5.382-8.232 1.13.864-5.354 8.03zm3.286 2.964c-.117.102-.27.152-.426.136-.23-.02-.428-.173-.504-.392-.075-.219-.015-.461.154-.62l1.494-1.154c.106-.09.24-.139.377-.139l.05.002c.23.02.428.174.503.392.076.22.016.462-.154.62l-1.494 1.155zm1.905 2.01c-.357-.03-.661-.269-.776-.608-.114-.339-.016-.713.25-.953l1.882-1.454c.276-.235.667-.28.989-.113.322.165.513.51.483.87-.017.222-.117.428-.28.58l-.511.399-1.384 1.07c-.181.154-.416.23-.653.208zm3.05.925v.001l-.798.623c-.118.1-.271.15-.426.136-.154-.012-.297-.086-.398-.205h0c-.1-.118-.15-.271-.136-.425.01-.147.077-.284.186-.383l1.396-1.09.412-.318c.005-.004.008-.01.013-.013l.421-.33c.105-.089.239-.138.377-.138.016 0 .033 0 .05.002.23.02.428.174.504.393.075.22.014.463-.157.62l-1.397 1.091-.046.036zm3.022.65l-1.494 1.154c-.117.103-.271.153-.426.136-.23-.02-.428-.173-.504-.391-.076-.219-.015-.462.154-.62l.027-.021 1.467-1.134c.243-.205.605-.179.815.059.211.238.193.6-.04.816zm11.471-4.386c-.273.405-.82.519-1.231.257l-.005-.003-3.923-2.711c-.175-.122-.403-.141-.596-.05-.193.091-.323.28-.34.492-.017.213.08.42.257.54l3.796 2.624.002.002c.301.2.452.562.382.916-.07.355-.347.632-.702.702-.23.048-.468.002-.664-.127l-3.926-2.71c-.272-.186-.643-.118-.83.154-.188.27-.12.642.151.83l2.867 1.978.001.001c.414.291.528.856.258 1.284-.27.408-.816.524-1.228.26l-1.056-.75h0-.001l-1.077-.765c-.174-.124-.4-.145-.594-.056-.194.089-.326.275-.346.487-.02.213.074.42.248.543l1.108.786c.053.043.104.09.152.139.338.32.375.846.085 1.21-.29.365-.81.448-1.198.19l-1.968-1.314c.334-.516.377-1.168.112-1.722-.264-.555-.797-.932-1.408-.998.014-.93-.697-1.71-1.624-1.783-.077-.005-.154-.004-.23.002-.02-.736-.427-1.406-1.07-1.762-.644-.356-1.428-.345-2.06.03-.18-.562-.626-.999-1.191-1.166-.565-.167-1.177-.042-1.632.333l-.816.63-.93-.743 4.177-6.266h5.243c-.453.398-.665 1.005-.557 1.599.124.72.696 1.28 1.419 1.391 1.105.156 2.231-.006 3.247-.468l1.523.97c.034.019.07.035.108.047l5.823 3.75c.115.08.212.183.284.302.002.007.006.014.01.02.154.295.135.65-.05.925zm.611-2.074c-.063-.062-.13-.12-.2-.172l-5.908-3.805c-.027-.013-.056-.024-.085-.033l-1.757-1.117c-.187-.12-.425-.125-.618-.015-.859.446-1.834.617-2.793.492-.224-.027-.403-.199-.438-.421-.044-.234.07-.468.28-.578.447-.233.868-.514 1.253-.84.042-.034.076-.077.1-.125.019-.024.04-.046.063-.065.175-.15.897-.604 2.862-.241l2.367 1.008c.123.054.262.063.39.027l2.112-.576 3.534 5.3-1.162 1.16zm3.313-.09L26.895 8.53l1.13-.864 5.382 8.232-1.158.662zm3.396-1.94l-1.199.685-5.47-8.366 6.67-5.1V14.62z"/>
</svg>
