<svg xmlns="http://www.w3.org/2000/svg" width="24" height="33" viewBox="0 0 24 33">
    <g fill="currentColor">
        <path d="M21.245 2.24h-4.041c-.22-.65-.835-1.12-1.559-1.12h-1.71C13.418.422 12.596 0 11.726 0c-.87 0-1.692.422-2.21 1.12h-1.71c-.724 0-1.339.47-1.559 1.12H2.205C.989 2.24 0 3.23 0 4.445v25.76c0 1.216.99 2.205 2.205 2.205h19.04c1.216 0 2.205-.99 2.205-2.205V4.445c0-1.216-.99-2.205-2.205-2.205zM6.246 5.53c.22.65.835 1.12 1.559 1.12h7.84c.724 0 1.339-.47 1.559-1.12h2.956v23.59H3.29V5.53h2.956zm1.559-3.36h1.99c.188 0 .36-.1.454-.261.314-.538.865-.859 1.476-.859.61 0 1.162.321 1.476.859.094.162.266.261.453.261h1.991c.328 0 .595.267.595.595V5.005c0 .328-.267.595-.595.595h-7.84c-.328 0-.594-.266-.595-.594v-.001-2.24c0-.328.267-.595.595-.595zM22.4 30.205c0 .637-.518 1.155-1.155 1.155H2.205c-.637 0-1.155-.518-1.155-1.155V4.445c0-.637.518-1.155 1.155-1.155H6.16v1.19H2.765c-.29 0-.525.235-.525.525v24.64c0 .29.235.525.525.525h17.92c.29 0 .525-.235.525-.525V5.005c0-.29-.235-.525-.525-.525H17.29V3.29h3.955c.637 0 1.155.518 1.155 1.155v25.76z"/>
        <path d="M11.725 4.41c.29 0 .525-.235.525-.525v-1.12c0-.29-.235-.525-.525-.525-.29 0-.525.235-.525.525v1.12c0 .29.235.525.525.525zM12.285 11.69h3.36c.29 0 .525-.235.525-.525 0-.29-.235-.525-.525-.525h-3.36c-.29 0-.525.235-.525.525 0 .29.235.525.525.525zM12.285 13.93h5.6c.29 0 .525-.235.525-.525 0-.29-.235-.525-.525-.525h-5.6c-.29 0-.525.235-.525.525 0 .29.235.525.525.525zM6.874 13.776c.102.103.237.154.371.154s.269-.051.371-.154l2.8-2.8c.205-.205.205-.537 0-.742-.205-.205-.537-.205-.742 0l-2.429 2.429-1.309-1.31c-.205-.204-.537-.204-.742 0-.205.206-.205.538 0 .743l1.68 1.68zM12.285 17.29h3.36c.29 0 .525-.235.525-.525 0-.29-.235-.525-.525-.525h-3.36c-.29 0-.525.235-.525.525 0 .29.235.525.525.525zM12.285 19.53h5.6c.29 0 .525-.235.525-.525 0-.29-.235-.525-.525-.525h-5.6c-.29 0-.525.235-.525.525 0 .29.235.525.525.525zM6.874 19.376c.102.103.237.154.371.154s.269-.051.371-.154l2.8-2.8c.205-.205.205-.537 0-.742-.205-.205-.537-.205-.742 0l-2.429 2.429-1.309-1.31c-.205-.204-.537-.204-.742 0-.205.206-.205.538 0 .743l1.68 1.68zM12.285 22.89h3.36c.29 0 .525-.235.525-.525 0-.29-.235-.525-.525-.525h-3.36c-.29 0-.525.235-.525.525 0 .29.235.525.525.525zM12.285 25.13h5.6c.29 0 .525-.235.525-.525 0-.29-.235-.525-.525-.525h-5.6c-.29 0-.525.235-.525.525 0 .29.235.525.525.525zM6.874 24.976c.102.103.237.154.371.154s.269-.051.371-.154l2.8-2.8c.205-.205.205-.537 0-.742-.205-.205-.537-.205-.742 0l-2.429 2.429-1.309-1.31c-.205-.204-.537-.204-.742 0-.205.206-.205.538 0 .743l1.68 1.68z"/>
    </g>
</svg>
