<svg xmlns="http://www.w3.org/2000/svg" width="26" height="31" viewBox="0 0 26 31">
    <g fill="currentColor">
        <path d="M25.252 25.466c.247 0 .447-.2.447-.447V4.263c0-.247-.2-.448-.447-.448H20.93V.447c0-.243-.204-.447-.447-.447H.452C.205 0 .005.2.005.447v26.708c0 .247.2.447.447.447h4.322v2.415c0 .247.2.447.447.447h20.031c.247 0 .447-.2.447-.447v-5.05c0-.247-.2-.447-.447-.447s-.447.2-.447.447v4.603H5.668V4.71h19.137v20.31c0 .246.2.446.447.446zM5.112 3.83c-.195.049-.338.232-.338.434v22.445H.899V.894H16.85L5.113 3.83zm14.924-.014H8.853L20.036 1.02v2.795z"/>
        <path d="M21.914 7.154H8.56c-.247 0-.448.2-.448.447v6.2c0 .247.2.447.448.447h13.354c.247 0 .447-.2.447-.447v-6.2c0-.247-.2-.447-.447-.447zm-.447 6.2H9.007V8.048h12.46v5.306zM16.667 15.739H8.56c-.247 0-.448.2-.448.447v10.492c0 .247.2.448.448.448h8.107c.247 0 .448-.2.448-.448V16.186c0-.247-.2-.447-.448-.447zM16.22 26.23H9.007v-9.598h7.213v9.598zM21.914 17.17h-3.339c-.247 0-.447.2-.447.447s.2.447.447.447h3.339c.247 0 .447-.2.447-.447s-.2-.447-.447-.447zM21.914 19.077h-3.339c-.247 0-.447.2-.447.447s.2.448.447.448h3.339c.247 0 .447-.2.447-.448 0-.247-.2-.447-.447-.447zM21.914 20.985h-3.339c-.247 0-.447.2-.447.447s.2.447.447.447h3.339c.247 0 .447-.2.447-.447s-.2-.447-.447-.447zM21.914 22.893h-3.339c-.247 0-.447.2-.447.447s.2.447.447.447h3.339c.247 0 .447-.2.447-.447s-.2-.447-.447-.447zM21.914 24.8h-3.339c-.247 0-.447.2-.447.448 0 .247.2.447.447.447h3.339c.247 0 .447-.2.447-.447s-.2-.448-.447-.448z"/>
    </g>
</svg>
